<?xml version="1.0" encoding="UTF-8" standalone="no"?>
<!DOCTYPE svg PUBLIC "-//W3C//DTD SVG 1.1//EN"
 "http://www.w3.org/Graphics/SVG/1.1/DTD/svg11.dtd">
<!-- Generated by graphviz version 5.0.0 (20220707.1540)
 -->
<!-- Title: dependencies Pages: 1 -->
<svg width="1030pt" height="174pt"
 viewBox="0.00 0.00 1030.00 173.80" xmlns="http://www.w3.org/2000/svg" xmlns:xlink="http://www.w3.org/1999/xlink">
<g id="graph0" class="graph" transform="scale(1 1) rotate(0) translate(4 169.8)">
<title>dependencies</title>
<polygon fill="white" stroke="transparent" points="-4,4 -4,-169.8 1026,-169.8 1026,4 -4,4"/>
<text text-anchor="middle" x="511" y="-8.2" font-family="sans-serif" font-size="14.00">dependencies</text>
<g id="clust1" class="cluster">
<title>cluster_PublicModule</title>
<polygon fill="none" stroke="black" stroke-dasharray="1,5" points="8,-32.8 8,-157.8 1014,-157.8 1014,-32.8 8,-32.8"/>
</g>
<g id="clust9" class="cluster">
<title>cluster_PublicModule_imports</title>
<polygon fill="none" stroke="black" points="850,-40.8 850,-92.8 1006,-92.8 1006,-40.8 850,-40.8"/>
</g>
<g id="clust2" class="cluster">
<title>cluster_PublicModule_declarations</title>
<polygon fill="none" stroke="black" points="16,-40.8 16,-92.8 842,-92.8 842,-40.8 16,-40.8"/>
</g>
<!-- ContactComponent -->
<g id="node1" class="node">
<title>ContactComponent</title>
<polygon fill="#ffffb3" stroke="black" points="834.38,-84.8 709.62,-84.8 709.62,-48.8 834.38,-48.8 834.38,-84.8"/>
<text text-anchor="middle" x="772" y="-62.6" font-family="Times,serif" font-size="14.00">ContactComponent</text>
</g>
<!-- PublicModule -->
<g id="node7" class="node">
<title>PublicModule</title>
<polygon fill="#8dd3c7" stroke="black" points="542.83,-149.8 539.83,-153.8 518.83,-153.8 515.83,-149.8 447.17,-149.8 447.17,-113.8 542.83,-113.8 542.83,-149.8"/>
<text text-anchor="middle" x="495" y="-127.6" font-family="Times,serif" font-size="14.00">PublicModule</text>
</g>
<!-- ContactComponent&#45;&gt;PublicModule -->
<g id="edge1" class="edge">
<title>ContactComponent&#45;&gt;PublicModule</title>
<path fill="none" stroke="black" d="M772,-84.91C772,-104.14 772,-131.8 772,-131.8 772,-131.8 552.93,-131.8 552.93,-131.8"/>
<polygon fill="black" stroke="black" points="552.93,-128.3 542.93,-131.8 552.93,-135.3 552.93,-128.3"/>
</g>
<!-- HomeComponent -->
<g id="node2" class="node">
<title>HomeComponent</title>
<polygon fill="#ffffb3" stroke="black" points="691.55,-84.8 576.45,-84.8 576.45,-48.8 691.55,-48.8 691.55,-84.8"/>
<text text-anchor="middle" x="634" y="-62.6" font-family="Times,serif" font-size="14.00">HomeComponent</text>
</g>
<!-- HomeComponent&#45;&gt;PublicModule -->
<g id="edge2" class="edge">
<title>HomeComponent&#45;&gt;PublicModule</title>
<path fill="none" stroke="black" d="M634,-84.83C634,-101.2 634,-122.8 634,-122.8 634,-122.8 552.84,-122.8 552.84,-122.8"/>
<polygon fill="black" stroke="black" points="552.84,-119.3 542.84,-122.8 552.84,-126.3 552.84,-119.3"/>
</g>
<!-- PheaderComponent -->
<g id="node3" class="node">
<title>PheaderComponent</title>
<polygon fill="#ffffb3" stroke="black" points="558.42,-84.8 431.58,-84.8 431.58,-48.8 558.42,-48.8 558.42,-84.8"/>
<text text-anchor="middle" x="495" y="-62.6" font-family="Times,serif" font-size="14.00">PheaderComponent</text>
</g>
<!-- PheaderComponent&#45;&gt;PublicModule -->
<g id="edge3" class="edge">
<title>PheaderComponent&#45;&gt;PublicModule</title>
<path fill="none" stroke="black" d="M495,-84.91C495,-84.91 495,-103.79 495,-103.79"/>
<polygon fill="black" stroke="black" points="491.5,-103.79 495,-113.79 498.5,-103.79 491.5,-103.79"/>
</g>
<!-- PlayoutComponent -->
<g id="node4" class="node">
<title>PlayoutComponent</title>
<polygon fill="#ffffb3" stroke="black" points="414.11,-84.8 289.89,-84.8 289.89,-48.8 414.11,-48.8 414.11,-84.8"/>
<text text-anchor="middle" x="352" y="-62.6" font-family="Times,serif" font-size="14.00">PlayoutComponent</text>
</g>
<!-- PlayoutComponent&#45;&gt;PublicModule -->
<g id="edge4" class="edge">
<title>PlayoutComponent&#45;&gt;PublicModule</title>
<path fill="none" stroke="black" d="M352,-84.83C352,-101.2 352,-122.8 352,-122.8 352,-122.8 436.99,-122.8 436.99,-122.8"/>
<polygon fill="black" stroke="black" points="436.99,-126.3 446.99,-122.8 436.99,-119.3 436.99,-126.3"/>
</g>
<!-- ProduitComponent -->
<g id="node5" class="node">
<title>ProduitComponent</title>
<polygon fill="#ffffb3" stroke="black" points="272.06,-84.8 149.94,-84.8 149.94,-48.8 272.06,-48.8 272.06,-84.8"/>
<text text-anchor="middle" x="211" y="-62.6" font-family="Times,serif" font-size="14.00">ProduitComponent</text>
</g>
<!-- ProduitComponent&#45;&gt;PublicModule -->
<g id="edge5" class="edge">
<title>ProduitComponent&#45;&gt;PublicModule</title>
<path fill="none" stroke="black" d="M211,-84.91C211,-104.14 211,-131.8 211,-131.8 211,-131.8 437.14,-131.8 437.14,-131.8"/>
<polygon fill="black" stroke="black" points="437.14,-135.3 447.14,-131.8 437.14,-128.3 437.14,-135.3"/>
</g>
<!-- UserComponent -->
<g id="node6" class="node">
<title>UserComponent</title>
<polygon fill="#ffffb3" stroke="black" points="131.77,-84.8 24.23,-84.8 24.23,-48.8 131.77,-48.8 131.77,-84.8"/>
<text text-anchor="middle" x="78" y="-62.6" font-family="Times,serif" font-size="14.00">UserComponent</text>
</g>
<!-- UserComponent&#45;&gt;PublicModule -->
<g id="edge6" class="edge">
<title>UserComponent&#45;&gt;PublicModule</title>
<path fill="none" stroke="black" d="M78,-85.09C78,-107.01 78,-140.8 78,-140.8 78,-140.8 437.16,-140.8 437.16,-140.8"/>
<polygon fill="black" stroke="black" points="437.16,-144.3 447.16,-140.8 437.16,-137.3 437.16,-144.3"/>
</g>
<!-- PublicRoutingModule -->
<g id="node8" class="node">
<title>PublicRoutingModule</title>
<polygon fill="#8dd3c7" stroke="black" points="998.45,-84.8 995.45,-88.8 974.45,-88.8 971.45,-84.8 857.55,-84.8 857.55,-48.8 998.45,-48.8 998.45,-84.8"/>
<text text-anchor="middle" x="928" y="-62.6" font-family="Times,serif" font-size="14.00">PublicRoutingModule</text>
</g>
<!-- PublicRoutingModule&#45;&gt;PublicModule -->
<g id="edge7" class="edge">
<title>PublicRoutingModule&#45;&gt;PublicModule</title>
<path fill="none" stroke="black" d="M928,-85.09C928,-107.01 928,-140.8 928,-140.8 928,-140.8 552.99,-140.8 552.99,-140.8"/>
<polygon fill="black" stroke="black" points="552.99,-137.3 542.99,-140.8 552.99,-144.3 552.99,-137.3"/>
</g>
</g>
</svg>
