<?xml version="1.0" encoding="UTF-8" standalone="no"?>
<!DOCTYPE svg PUBLIC "-//W3C//DTD SVG 1.1//EN"
 "http://www.w3.org/Graphics/SVG/1.1/DTD/svg11.dtd">
<!-- Generated by graphviz version 5.0.0 (20220707.1540)
 -->
<!-- Title: dependencies Pages: 1 -->
<svg width="752pt" height="174pt"
 viewBox="0.00 0.00 752.00 173.80" xmlns="http://www.w3.org/2000/svg" xmlns:xlink="http://www.w3.org/1999/xlink">
<g id="graph0" class="graph" transform="scale(1 1) rotate(0) translate(4 169.8)">
<title>dependencies</title>
<polygon fill="white" stroke="transparent" points="-4,4 -4,-169.8 748,-169.8 748,4 -4,4"/>
<text text-anchor="middle" x="372" y="-8.2" font-family="sans-serif" font-size="14.00">dependencies</text>
<g id="clust1" class="cluster">
<title>cluster_ProduitModule</title>
<polygon fill="none" stroke="black" stroke-dasharray="1,5" points="8,-32.8 8,-157.8 736,-157.8 736,-32.8 8,-32.8"/>
</g>
<g id="clust2" class="cluster">
<title>cluster_ProduitModule_declarations</title>
<polygon fill="none" stroke="black" points="186,-40.8 186,-92.8 728,-92.8 728,-40.8 186,-40.8"/>
</g>
<g id="clust7" class="cluster">
<title>cluster_ProduitModule_imports</title>
<polygon fill="none" stroke="black" points="16,-40.8 16,-92.8 178,-92.8 178,-40.8 16,-40.8"/>
</g>
<!-- PAddComponent -->
<g id="node1" class="node">
<title>PAddComponent</title>
<polygon fill="#ffffb3" stroke="black" points="719.73,-84.8 606.27,-84.8 606.27,-48.8 719.73,-48.8 719.73,-84.8"/>
<text text-anchor="middle" x="663" y="-62.6" font-family="Times,serif" font-size="14.00">PAddComponent</text>
</g>
<!-- ProduitModule -->
<g id="node5" class="node">
<title>ProduitModule</title>
<polygon fill="#8dd3c7" stroke="black" points="439.28,-149.8 436.28,-153.8 415.28,-153.8 412.28,-149.8 338.72,-149.8 338.72,-113.8 439.28,-113.8 439.28,-149.8"/>
<text text-anchor="middle" x="389" y="-127.6" font-family="Times,serif" font-size="14.00">ProduitModule</text>
</g>
<!-- PAddComponent&#45;&gt;ProduitModule -->
<g id="edge1" class="edge">
<title>PAddComponent&#45;&gt;ProduitModule</title>
<path fill="none" stroke="black" d="M663,-85.08C663,-106.12 663,-137.8 663,-137.8 663,-137.8 449.58,-137.8 449.58,-137.8"/>
<polygon fill="black" stroke="black" points="449.58,-134.3 439.58,-137.8 449.58,-141.3 449.58,-134.3"/>
</g>
<!-- PDeleteComponent -->
<g id="node2" class="node">
<title>PDeleteComponent</title>
<polygon fill="#ffffb3" stroke="black" points="588.65,-84.8 463.35,-84.8 463.35,-48.8 588.65,-48.8 588.65,-84.8"/>
<text text-anchor="middle" x="526" y="-62.6" font-family="Times,serif" font-size="14.00">PDeleteComponent</text>
</g>
<!-- PDeleteComponent&#45;&gt;ProduitModule -->
<g id="edge2" class="edge">
<title>PDeleteComponent&#45;&gt;ProduitModule</title>
<path fill="none" stroke="black" d="M526,-84.82C526,-102.17 526,-125.8 526,-125.8 526,-125.8 449.62,-125.8 449.62,-125.8"/>
<polygon fill="black" stroke="black" points="449.62,-122.3 439.62,-125.8 449.62,-129.3 449.62,-122.3"/>
</g>
<!-- PEditComponent -->
<g id="node3" class="node">
<title>PEditComponent</title>
<polygon fill="#ffffb3" stroke="black" points="445.45,-84.8 332.55,-84.8 332.55,-48.8 445.45,-48.8 445.45,-84.8"/>
<text text-anchor="middle" x="389" y="-62.6" font-family="Times,serif" font-size="14.00">PEditComponent</text>
</g>
<!-- PEditComponent&#45;&gt;ProduitModule -->
<g id="edge3" class="edge">
<title>PEditComponent&#45;&gt;ProduitModule</title>
<path fill="none" stroke="black" d="M389,-84.91C389,-84.91 389,-103.79 389,-103.79"/>
<polygon fill="black" stroke="black" points="385.5,-103.79 389,-113.79 392.5,-103.79 385.5,-103.79"/>
</g>
<!-- PIndexComponent -->
<g id="node4" class="node">
<title>PIndexComponent</title>
<polygon fill="#ffffb3" stroke="black" points="314.49,-84.8 193.51,-84.8 193.51,-48.8 314.49,-48.8 314.49,-84.8"/>
<text text-anchor="middle" x="254" y="-62.6" font-family="Times,serif" font-size="14.00">PIndexComponent</text>
</g>
<!-- PIndexComponent&#45;&gt;ProduitModule -->
<g id="edge4" class="edge">
<title>PIndexComponent&#45;&gt;ProduitModule</title>
<path fill="none" stroke="black" d="M254,-84.82C254,-102.17 254,-125.8 254,-125.8 254,-125.8 328.35,-125.8 328.35,-125.8"/>
<polygon fill="black" stroke="black" points="328.35,-129.3 338.35,-125.8 328.35,-122.3 328.35,-129.3"/>
</g>
<!-- ProduitRoutingModule -->
<g id="node6" class="node">
<title>ProduitRoutingModule</title>
<polygon fill="#8dd3c7" stroke="black" points="169.9,-84.8 166.9,-88.8 145.9,-88.8 142.9,-84.8 24.1,-84.8 24.1,-48.8 169.9,-48.8 169.9,-84.8"/>
<text text-anchor="middle" x="97" y="-62.6" font-family="Times,serif" font-size="14.00">ProduitRoutingModule</text>
</g>
<!-- ProduitRoutingModule&#45;&gt;ProduitModule -->
<g id="edge5" class="edge">
<title>ProduitRoutingModule&#45;&gt;ProduitModule</title>
<path fill="none" stroke="black" d="M97,-85.08C97,-106.12 97,-137.8 97,-137.8 97,-137.8 328.47,-137.8 328.47,-137.8"/>
<polygon fill="black" stroke="black" points="328.47,-141.3 338.47,-137.8 328.47,-134.3 328.47,-141.3"/>
</g>
</g>
</svg>
